<svg xmlns="http://www.w3.org/2000/svg" xmlns:xlink="http://www.w3.org/1999/xlink" width="745" zoomAndPan="magnify" viewBox="0 0 558.75 314.999992" height="420" preserveAspectRatio="xMidYMid meet" version="1.0"><defs><filter x="0%" y="0%" width="100%" height="100%" id="id1"><feColorMatrix values="0 0 0 0 1 0 0 0 0 1 0 0 0 0 1 0 0 0 1 0" color-interpolation-filters="sRGB"/></filter><clipPath id="id2"><path d="M 121 0.0703125 L 438 0.0703125 L 438 314.929688 L 121 314.929688 Z M 121 0.0703125 " clip-rule="nonzero"/></clipPath><mask id="id3"><g filter="url(#id1)"><rect x="-55.875" width="670.5" fill="#000000" y="-31.499999" height="377.99999" fill-opacity="0.5765"/></g></mask><clipPath id="id4"><path d="M 156 0.0703125 L 161 0.0703125 L 161 158 L 156 158 Z M 156 0.0703125 " clip-rule="nonzero"/></clipPath><clipPath id="id5"><path d="M 156 157 L 161 157 L 161 314.929688 L 156 314.929688 Z M 156 157 " clip-rule="nonzero"/></clipPath><clipPath id="id6"><path d="M 158 155 L 315.875 155 L 315.875 160 L 158 160 Z M 158 155 " clip-rule="nonzero"/></clipPath><clipPath id="id7"><path d="M 0.875 155 L 159 155 L 159 160 L 0.875 160 Z M 0.875 155 " clip-rule="nonzero"/></clipPath><clipPath id="id8"><rect x="0" width="317" y="0" height="315"/></clipPath></defs><g clip-path="url(#id2)"><g mask="url(#id3)"><g transform="matrix(1, 0, 0, 1, 121, 0.000000000000029518)"><g clip-path="url(#id8)"><path fill="#ffffff" d="M 158.429688 157.585938 L 47.066406 49.375 C 46.199219 48.527344 46.179688 47.144531 47.019531 46.277344 C 47.867188 45.40625 49.25 45.386719 50.121094 46.234375 L 50.164062 46.277344 L 158.429688 157.585938 " fill-opacity="1" fill-rule="nonzero"/><path fill="#ffffff" d="M 266.65625 268.957031 L 158.40625 157.613281 L 269.753906 265.863281 C 270.621094 266.707031 270.640625 268.089844 269.796875 268.957031 C 268.953125 269.828125 267.566406 269.847656 266.699219 269.003906 L 266.65625 268.957031 " fill-opacity="1" fill-rule="nonzero"/><path fill="#ffffff" d="M 158.433594 157.613281 L 266.65625 46.246094 C 267.496094 45.378906 268.886719 45.359375 269.753906 46.203125 C 270.621094 47.046875 270.640625 48.433594 269.800781 49.296875 L 269.753906 49.34375 L 158.433594 157.613281 " fill-opacity="1" fill-rule="nonzero"/><path fill="#ffffff" d="M 47.066406 265.839844 L 158.410156 157.585938 L 50.164062 268.9375 C 49.320312 269.804688 47.933594 269.828125 47.066406 268.980469 C 46.199219 268.136719 46.179688 266.75 47.019531 265.882812 L 47.066406 265.839844 " fill-opacity="1" fill-rule="nonzero"/><g clip-path="url(#id4)"><path fill="#ffffff" d="M 158.433594 157.613281 L 156.207031 2.339844 C 156.191406 1.132812 157.15625 0.136719 158.367188 0.117188 C 159.578125 0.0976562 160.574219 1.070312 160.589844 2.277344 L 160.589844 2.339844 L 158.433594 157.613281 " fill-opacity="1" fill-rule="nonzero"/></g><g clip-path="url(#id5)"><path fill="#ffffff" d="M 156.207031 312.882812 L 158.398438 157.613281 L 160.589844 312.882812 C 160.609375 314.09375 159.640625 315.089844 158.429688 315.105469 C 157.21875 315.125 156.222656 314.160156 156.207031 312.945312 L 156.207031 312.882812 " fill-opacity="1" fill-rule="nonzero"/></g><g clip-path="url(#id6)"><path fill="#ffffff" d="M 158.417969 157.628906 L 313.6875 155.402344 C 314.898438 155.386719 315.894531 156.351562 315.910156 157.5625 C 315.929688 158.773438 314.964844 159.769531 313.75 159.785156 L 313.6875 159.785156 L 158.417969 157.628906 " fill-opacity="1" fill-rule="nonzero"/></g><g clip-path="url(#id7)"><path fill="#ffffff" d="M 3.144531 155.402344 L 158.417969 157.59375 L 3.144531 159.785156 C 1.933594 159.800781 0.941406 158.835938 0.921875 157.625 C 0.90625 156.414062 1.875 155.417969 3.082031 155.402344 L 3.144531 155.402344 " fill-opacity="1" fill-rule="nonzero"/></g><path fill="#ffffff" d="M 158.421875 157.582031 L 14.0625 100.375 C 12.941406 99.929688 12.390625 98.65625 12.835938 97.527344 C 13.28125 96.40625 14.554688 95.855469 15.679688 96.300781 L 15.738281 96.324219 L 158.421875 157.582031 " fill-opacity="1" fill-rule="nonzero"/><path fill="#ffffff" d="M 301.085938 218.921875 L 158.410156 157.617188 L 302.761719 214.871094 C 303.882812 215.316406 304.433594 216.589844 303.988281 217.710938 C 303.539062 218.839844 302.269531 219.390625 301.140625 218.941406 L 301.085938 218.921875 " fill-opacity="1" fill-rule="nonzero"/><path fill="#ffffff" d="M 158.433594 157.613281 L 215.652344 13.25 C 216.101562 12.121094 217.371094 11.570312 218.496094 12.015625 C 219.625 12.464844 220.175781 13.738281 219.730469 14.863281 L 219.703125 14.917969 L 158.433594 157.613281 " fill-opacity="1" fill-rule="nonzero"/><path fill="#ffffff" d="M 97.105469 300.273438 L 158.398438 157.59375 L 101.15625 301.945312 C 100.707031 303.074219 99.4375 303.621094 98.308594 303.175781 C 97.1875 302.730469 96.636719 301.457031 97.082031 300.332031 L 97.105469 300.273438 " fill-opacity="1" fill-rule="nonzero"/><path fill="#ffffff" d="M 158.433594 157.605469 L 96.804688 15.070312 C 96.328125 13.960938 96.839844 12.667969 97.949219 12.1875 C 99.058594 11.710938 100.351562 12.21875 100.828125 13.332031 L 100.855469 13.390625 L 158.433594 157.605469 " fill-opacity="1" fill-rule="nonzero"/><path fill="#ffffff" d="M 215.9375 301.855469 L 158.398438 157.617188 L 219.988281 300.171875 C 220.464844 301.285156 219.953125 302.570312 218.84375 303.050781 C 217.734375 303.53125 216.445312 303.019531 215.960938 301.910156 L 215.9375 301.855469 " fill-opacity="1" fill-rule="nonzero"/><path fill="#ffffff" d="M 158.421875 157.628906 L 300.957031 96.007812 C 302.070312 95.53125 303.359375 96.039062 303.835938 97.148438 C 304.320312 98.261719 303.808594 99.550781 302.699219 100.03125 L 302.640625 100.054688 L 158.421875 157.628906 " fill-opacity="1" fill-rule="nonzero"/><path fill="#ffffff" d="M 14.179688 215.140625 L 158.410156 157.59375 L 15.859375 219.1875 C 14.746094 219.667969 13.457031 219.15625 12.980469 218.046875 C 12.496094 216.933594 13.007812 215.640625 14.117188 215.164062 L 14.179688 215.140625 " fill-opacity="1" fill-rule="nonzero"/><path fill="#ffffff" d="M 158.421875 157.59375 L 64.65625 95.078125 C 63.925781 94.589844 63.730469 93.605469 64.214844 92.871094 C 64.703125 92.140625 65.691406 91.945312 66.421875 92.429688 L 66.457031 92.457031 L 158.421875 157.59375 " fill-opacity="1" fill-rule="nonzero"/><path fill="#ffffff" d="M 250.359375 222.777344 L 158.410156 157.613281 L 252.160156 220.160156 C 252.890625 220.648438 253.085938 221.632812 252.597656 222.363281 C 252.113281 223.09375 251.125 223.292969 250.394531 222.804688 L 250.359375 222.777344 " fill-opacity="1" fill-rule="nonzero"/><path fill="#ffffff" d="M 158.429688 157.613281 L 220.945312 63.847656 C 221.433594 63.117188 222.421875 62.917969 223.152344 63.40625 C 223.882812 63.890625 224.078125 64.882812 223.59375 65.613281 L 223.566406 65.648438 L 158.429688 157.613281 " fill-opacity="1" fill-rule="nonzero"/><path fill="#ffffff" d="M 93.242188 249.554688 L 158.40625 157.601562 L 95.863281 251.351562 C 95.378906 252.085938 94.390625 252.28125 93.660156 251.792969 C 92.929688 251.304688 92.730469 250.320312 93.21875 249.589844 L 93.242188 249.554688 " fill-opacity="1" fill-rule="nonzero"/><path fill="#ffffff" d="M 158.429688 157.613281 L 136.332031 47.097656 C 136.164062 46.238281 136.71875 45.402344 137.582031 45.226562 C 138.441406 45.058594 139.28125 45.613281 139.453125 46.476562 L 139.460938 46.519531 L 158.429688 157.613281 " fill-opacity="1" fill-rule="nonzero"/><path fill="#ffffff" d="M 177.34375 268.714844 L 158.40625 157.613281 L 180.46875 268.136719 C 180.644531 268.996094 180.082031 269.835938 179.222656 270.007812 C 178.359375 270.179688 177.523438 269.621094 177.351562 268.757812 L 177.34375 268.714844 " fill-opacity="1" fill-rule="nonzero"/><path fill="#ffffff" d="M 158.417969 157.625 L 268.929688 135.53125 C 269.792969 135.359375 270.628906 135.914062 270.800781 136.777344 C 270.976562 137.636719 270.414062 138.476562 269.554688 138.648438 L 269.511719 138.65625 L 158.417969 157.625 " fill-opacity="1" fill-rule="nonzero"/><path fill="#ffffff" d="M 47.3125 176.542969 L 158.410156 157.605469 L 47.890625 179.671875 C 47.03125 179.84375 46.191406 179.285156 46.023438 178.425781 C 45.847656 177.5625 46.410156 176.722656 47.269531 176.550781 L 47.3125 176.542969 " fill-opacity="1" fill-rule="nonzero"/><path fill="#ffffff" d="M 158.417969 157.59375 L 47.835938 135.828125 C 46.976562 135.65625 46.414062 134.820312 46.585938 133.960938 C 46.753906 133.097656 47.589844 132.535156 48.453125 132.707031 L 48.496094 132.714844 L 158.417969 157.59375 " fill-opacity="1" fill-rule="nonzero"/><path fill="#ffffff" d="M 268.324219 182.519531 L 158.410156 157.617188 L 268.988281 179.410156 C 269.847656 179.578125 270.410156 180.414062 270.238281 181.277344 C 270.066406 182.136719 269.234375 182.699219 268.371094 182.527344 L 268.324219 182.519531 " fill-opacity="1" fill-rule="nonzero"/><path fill="#ffffff" d="M 158.429688 157.613281 L 180.191406 47.03125 C 180.359375 46.171875 181.195312 45.609375 182.058594 45.78125 C 182.917969 45.949219 183.480469 46.78125 183.308594 47.644531 L 183.300781 47.691406 L 158.429688 157.613281 " fill-opacity="1" fill-rule="nonzero"/><path fill="#ffffff" d="M 133.496094 267.515625 L 158.40625 157.605469 L 136.609375 268.175781 C 136.4375 269.035156 135.605469 269.597656 134.738281 269.425781 C 133.878906 269.257812 133.316406 268.421875 133.488281 267.558594 L 133.496094 267.515625 " fill-opacity="1" fill-rule="nonzero"/><path fill="#ffffff" d="M 158.421875 157.605469 L 95.628906 64.027344 C 95.136719 63.296875 95.332031 62.308594 96.0625 61.820312 C 96.789062 61.332031 97.777344 61.523438 98.265625 62.253906 L 98.292969 62.289062 L 158.421875 157.605469 " fill-opacity="1" fill-rule="nonzero"/><path fill="#ffffff" d="M 218.515625 252.949219 L 158.40625 157.617188 L 221.183594 251.21875 C 221.675781 251.945312 221.476562 252.933594 220.75 253.421875 C 220.019531 253.914062 219.03125 253.71875 218.542969 252.988281 L 218.515625 252.949219 " fill-opacity="1" fill-rule="nonzero"/><path fill="#ffffff" d="M 158.421875 157.625 L 252 94.828125 C 252.730469 94.339844 253.722656 94.53125 254.210938 95.261719 C 254.699219 95.992188 254.503906 96.976562 253.777344 97.46875 L 253.738281 97.492188 L 158.421875 157.625 " fill-opacity="1" fill-rule="nonzero"/><path fill="#ffffff" d="M 63.078125 217.710938 L 158.410156 157.605469 L 64.8125 220.378906 C 64.085938 220.871094 63.09375 220.671875 62.605469 219.941406 C 62.117188 219.214844 62.3125 218.226562 63.039062 217.738281 L 63.078125 217.710938 " fill-opacity="1" fill-rule="nonzero"/></g></g></g></g></svg>