<svg xmlns="http://www.w3.org/2000/svg" xmlns:xlink="http://www.w3.org/1999/xlink" width="745" zoomAndPan="magnify" viewBox="0 0 558.75 314.999992" height="420" preserveAspectRatio="xMidYMid meet" version="1.0"><defs><clipPath id="id1"><path d="M 119.253906 203 L 439.503906 203 L 439.503906 314.929688 L 119.253906 314.929688 Z M 119.253906 203 " clip-rule="nonzero"/></clipPath></defs><path fill="#b7e3cc" d="M 375.730469 83.207031 C 375.730469 131.21875 345.445312 153.5 316.375 171.101562 C 295.027344 184.015625 274.339844 194.394531 266.84375 210.601562 C 249.121094 172.390625 157.957031 166.492188 157.957031 83.207031 C 159.375 26.363281 243.675781 -0.0234375 266.84375 75.5625 C 275.304688 47.988281 291.890625 33.984375 309.613281 30.085938 C 340.484375 23.273438 374.820312 47.101562 375.730469 83.207031 Z M 375.730469 83.207031 " fill-opacity="1" fill-rule="nonzero"/><path fill="#8d6758" d="M 208.019531 280.488281 C 209.691406 282.085938 211.566406 283.453125 213.542969 284.589844 C 199.714844 284.589844 194.371094 282.007812 183.507812 273.144531 C 160.769531 255.066406 138.484375 232.605469 124.710938 220.171875 C 120.761719 216.601562 122.429688 209.816406 127.191406 207.488281 C 132.027344 205.132812 138.003906 207.03125 147.347656 210.042969 C 142.636719 212.347656 141.5 218.652344 144.867188 222.703125 C 157.273438 237.671875 184.167969 257.902344 208.019531 280.488281 Z M 208.019531 280.488281 " fill-opacity="1" fill-rule="nonzero"/><path fill="#c29480" d="M 207.035156 232.074219 C 206.375 229.945312 207.109375 228.453125 207.109375 228.453125 C 211.289062 209.460938 241.144531 219.109375 251.601562 222.046875 C 269.097656 226.984375 279.507812 224.503906 297.914062 220.527344 C 385.808594 192.371094 383.582031 236.074219 383.582031 236.074219 L 436.503906 236.074219 L 436.503906 312.519531 L 340.40625 312.519531 C 333.847656 312.519531 328.152344 312.117188 320.605469 310.898438 C 294.953125 307.785156 238.40625 294.164062 217.363281 286.363281 C 216.046875 285.882812 214.78125 285.273438 213.542969 284.589844 C 211.566406 283.453125 209.691406 282.085938 208.019531 280.488281 C 184.167969 257.902344 157.273438 237.671875 144.867188 222.703125 C 141.5 218.652344 142.636719 212.347656 147.347656 210.042969 C 156.238281 205.714844 175.609375 207.917969 207.035156 232.074219 Z M 207.035156 232.074219 " fill-opacity="1" fill-rule="nonzero"/><path fill="#565194" d="M 224.667969 178.441406 C 242.761719 189.152344 258.394531 198.402344 264.550781 211.671875 C 264.964844 212.566406 265.863281 213.136719 266.847656 213.136719 C 267.832031 213.136719 268.730469 212.566406 269.144531 211.671875 C 275.300781 198.402344 290.929688 189.152344 309.027344 178.441406 C 339.871094 160.179688 378.265625 137.460938 378.265625 83.148438 C 377.554688 54.925781 355.84375 30.738281 327.757812 26.894531 C 306.5625 23.996094 280.148438 33.488281 266.84375 67.816406 C 253.542969 33.488281 227.128906 24 205.9375 26.894531 C 177.847656 30.738281 156.136719 54.925781 155.425781 83.210938 C 155.425781 137.460938 193.820312 160.179688 224.667969 178.441406 Z M 206.625 31.914062 C 208.726562 31.625 210.882812 31.472656 213.074219 31.472656 C 232.296875 31.472656 254.246094 43.085938 264.425781 76.3125 C 264.75 77.375 265.734375 78.101562 266.84375 78.101562 C 267.957031 78.101562 268.941406 77.375 269.265625 76.3125 C 280.609375 39.292969 306.5625 29.097656 327.070312 31.914062 C 348.882812 34.898438 372.460938 53.914062 373.199219 83.210938 C 373.199219 134.570312 337.734375 155.558594 306.445312 174.078125 C 290.175781 183.710938 274.726562 192.855469 266.84375 205.335938 C 258.96875 192.855469 243.511719 183.710938 227.246094 174.082031 C 195.957031 155.5625 160.492188 134.570312 160.492188 83.273438 C 161.226562 53.914062 184.8125 34.898438 206.625 31.914062 Z M 206.625 31.914062 " fill-opacity="1" fill-rule="nonzero"/><g clip-path="url(#id1)"><path fill="#565194" d="M 436.503906 233.554688 L 385.96875 233.554688 C 385.507812 229.628906 383.613281 222.15625 376.050781 216.332031 C 361.75 205.320312 335.199219 205.917969 297.375 218.046875 L 296.054688 218.332031 C 278.441406 222.15625 268.746094 224.261719 252.296875 219.617188 L 250.609375 219.136719 C 240.828125 216.324219 222.621094 211.089844 211.941406 217.449219 C 208.308594 219.609375 205.910156 222.894531 204.804688 227.21875 C 171.226562 202.492188 153.921875 204.585938 147.203125 207.335938 C 137.941406 204.355469 131.675781 202.480469 126.070312 205.21875 C 122.882812 206.773438 120.582031 209.976562 120.074219 213.574219 C 119.609375 216.851562 120.679688 219.9375 123.007812 222.042969 C 126.945312 225.605469 131.5 229.910156 136.773438 234.894531 C 149.636719 247.050781 165.640625 262.175781 181.902344 275.101562 C 192.972656 284.132812 198.8125 287.027344 212.933594 287.109375 C 214.089844 287.726562 215.261719 288.296875 216.480469 288.746094 C 238.226562 296.800781 295.46875 310.40625 320.195312 313.40625 C 327.511719 314.578125 333.359375 315.050781 340.390625 315.050781 L 436.503906 315.050781 C 437.902344 315.050781 439.039062 313.917969 439.039062 312.519531 L 439.039062 236.085938 C 439.039062 234.6875 437.90625 233.554688 436.503906 233.554688 Z M 140.257812 231.214844 C 134.964844 226.210938 130.390625 221.890625 126.410156 218.289062 C 124.960938 216.976562 124.964844 215.21875 125.09375 214.285156 C 125.371094 212.332031 126.597656 210.597656 128.296875 209.769531 C 131.570312 208.171875 136.058594 209.164062 142.371094 211.121094 C 141.566406 212.265625 140.953125 213.554688 140.644531 214.984375 C 139.929688 218.308594 140.757812 221.707031 142.914062 224.3125 C 150.410156 233.367188 162.699219 243.949219 176.925781 256.207031 C 186.359375 264.332031 196.097656 272.738281 205.53125 281.621094 C 197.828125 280.628906 193.160156 277.742188 185.089844 271.160156 C 168.96875 258.347656 153.046875 243.304688 140.257812 231.214844 Z M 433.972656 309.988281 L 340.398438 309.988281 C 333.652344 309.988281 328.035156 309.53125 320.910156 308.394531 C 296.351562 305.410156 239.742188 291.960938 218.246094 284 C 215.175781 282.863281 212.320312 281.058594 209.769531 278.644531 C 200.015625 269.417969 189.957031 260.753906 180.226562 252.371094 C 166.171875 240.265625 154.039062 229.808594 146.8125 221.085938 C 145.652344 219.683594 145.207031 217.851562 145.59375 216.054688 C 145.949219 214.398438 146.992188 213.039062 148.457031 212.324219 C 149.765625 211.683594 152.300781 210.804688 156.324219 210.804688 C 164.902344 210.804688 180.253906 214.800781 204.902344 233.625 C 204.90625 233.632812 204.910156 233.636719 204.910156 233.644531 C 206.625 237.753906 211.34375 241.097656 219.074219 243.628906 C 229.957031 246.511719 247.621094 253.089844 256.878906 257.710938 C 263.820312 261.179688 271.976562 262.964844 281.816406 263.171875 C 283.1875 263.199219 284.582031 263.214844 285.980469 263.226562 C 291.859375 263.289062 297.941406 263.351562 302.53125 264.542969 C 306.015625 265.691406 307.765625 266.265625 310.261719 270.496094 C 310.96875 271.703125 312.519531 272.101562 313.726562 271.394531 C 314.933594 270.683594 315.332031 269.132812 314.625 267.925781 C 311.160156 262.050781 307.894531 260.976562 304.113281 259.734375 C 304.058594 259.71875 303.804688 259.636719 303.75 259.625 C 298.609375 258.300781 292.214844 258.234375 286.035156 258.167969 C 284.652344 258.152344 283.277344 258.136719 281.921875 258.109375 C 272.847656 257.917969 265.398438 256.308594 259.140625 253.183594 C 249.636719 248.4375 231.519531 241.6875 220.511719 238.78125 C 212.65625 236.203125 210.335938 233.332031 209.65625 231.851562 C 209.585938 231.699219 209.527344 231.550781 209.480469 231.414062 C 209.464844 231.351562 209.445312 231.292969 209.425781 231.234375 C 209.144531 230.234375 209.390625 229.578125 209.386719 229.578125 C 209.480469 229.390625 209.546875 229.199219 209.59375 228.992188 C 210.316406 225.707031 211.933594 223.355469 214.539062 221.804688 C 223.339844 216.570312 240.8125 221.597656 249.214844 224.015625 L 250.921875 224.503906 C 268.589844 229.488281 279.332031 227.152344 297.132812 223.289062 L 298.6875 222.9375 C 343.886719 208.464844 363.976562 213.503906 372.871094 220.28125 C 381.324219 226.722656 381.054688 235.597656 381.042969 235.960938 C 381.007812 236.65625 381.257812 237.332031 381.734375 237.835938 C 382.210938 238.339844 382.875 238.621094 383.570312 238.621094 L 433.972656 238.621094 Z M 433.972656 309.988281 " fill-opacity="1" fill-rule="nonzero"/></g></svg>