<svg xmlns="http://www.w3.org/2000/svg" xmlns:xlink="http://www.w3.org/1999/xlink" width="745" zoomAndPan="magnify" viewBox="0 0 558.75 314.999992" height="420" preserveAspectRatio="xMidYMid meet" version="1.0"><defs><filter x="0%" y="0%" width="100%" height="100%" id="id1"><feColorMatrix values="0 0 0 0 1 0 0 0 0 1 0 0 0 0 1 0 0 0 1 0" color-interpolation-filters="sRGB"/></filter><clipPath id="id2"><path d="M 116 0.0703125 L 446 0.0703125 L 446 314.929688 L 116 314.929688 Z M 116 0.0703125 " clip-rule="nonzero"/></clipPath><mask id="id3"><g filter="url(#id1)"><rect x="-55.875" width="670.5" fill="#000000" y="-31.499999" height="377.99999" fill-opacity="0.4784"/></g></mask><clipPath id="id4"><path d="M 0.25 121 L 193 121 L 193 314.328125 L 0.25 314.328125 Z M 0.25 121 " clip-rule="nonzero"/></clipPath><clipPath id="id5"><path d="M 192 234 L 273 234 L 273 314.328125 L 192 314.328125 Z M 192 234 " clip-rule="nonzero"/></clipPath><clipPath id="id6"><path d="M 270 247 L 326.488281 247 L 326.488281 271 L 270 271 Z M 270 247 " clip-rule="nonzero"/></clipPath><clipPath id="id7"><rect x="0" width="330" y="0" height="315"/></clipPath></defs><g clip-path="url(#id2)"><g mask="url(#id3)"><g transform="matrix(1, 0, 0, 1, 116, 0.000000000000029518)"><g clip-path="url(#id7)"><path fill="#ffffff" d="M 221.816406 213.289062 L 99.003906 224.0625 C 95.996094 224.328125 93.316406 222.085938 93.050781 219.078125 L 93.019531 218.746094 C 92.753906 215.738281 95.007812 213.058594 98.015625 212.792969 L 220.828125 202.015625 C 223.835938 201.753906 226.515625 203.992188 226.78125 207.015625 L 226.8125 207.34375 C 227.078125 210.34375 224.824219 213.023438 221.816406 213.289062 Z M 221.816406 213.289062 " fill-opacity="1" fill-rule="nonzero"/><path fill="#ffffff" d="M 99.003906 224.0625 L 99.335938 224.03125 C 102.34375 223.765625 104.585938 221.085938 104.332031 218.078125 L 99.367188 161.382812 C 99.105469 158.371094 96.421875 156.132812 93.414062 156.382812 L 93.085938 156.417969 C 90.074219 156.679688 87.832031 159.359375 88.085938 162.371094 L 93.050781 219.066406 C 93.316406 222.074219 95.996094 224.328125 99.003906 224.0625 Z M 220.519531 138.28125 L 220.847656 138.246094 C 223.859375 137.984375 226.539062 140.234375 226.800781 143.234375 L 238.316406 274.804688 C 238.578125 277.816406 236.328125 280.496094 233.316406 280.757812 L 232.988281 280.792969 C 229.976562 281.054688 227.296875 278.804688 227.035156 275.804688 L 215.519531 144.234375 C 215.269531 141.222656 217.507812 138.542969 220.519531 138.28125 Z M 220.519531 138.28125 " fill-opacity="1" fill-rule="nonzero"/><path fill="#7d82b8" d="M 107.824219 139.753906 C 91.625 137.421875 75.761719 138.082031 81.285156 145.902344 C 86.824219 153.738281 99.113281 167.46875 119.964844 165.226562 C 140.824219 162.984375 117.867188 141.191406 107.824219 139.753906 Z M 107.824219 139.753906 " fill-opacity="1" fill-rule="nonzero"/><path fill="#7d82b8" d="M 119.976562 165.226562 L 232.703125 155.363281 C 243.972656 154.375 243.972656 154.375 242.984375 143.101562 C 242.445312 136.90625 236.917969 132.269531 230.722656 132.820312 L 117.996094 142.683594 C 111.800781 143.222656 107.167969 148.75 107.714844 154.945312 C 108.695312 166.203125 108.695312 166.203125 119.976562 165.226562 Z M 119.976562 165.226562 " fill-opacity="1" fill-rule="nonzero"/><path fill="#ffffff" d="M 114 168.554688 L 238.324219 157.679688 C 241.335938 157.417969 243.578125 154.734375 243.324219 151.726562 L 243.289062 151.398438 C 243.027344 148.386719 240.347656 146.144531 237.335938 146.398438 L 113.011719 157.273438 C 110 157.539062 107.761719 160.21875 108.011719 163.226562 L 108.046875 163.558594 C 108.308594 166.566406 110.988281 168.820312 114 168.554688 Z M 114 168.554688 " fill-opacity="1" fill-rule="nonzero"/><path fill="#7d82b8" d="M 65.347656 13.707031 L 75.210938 126.4375 C 76.199219 137.710938 76.199219 137.710938 87.472656 136.71875 C 93.667969 136.183594 98.300781 130.65625 97.753906 124.460938 L 87.886719 11.730469 C 87.351562 5.535156 81.824219 0.898438 75.628906 1.449219 C 64.359375 2.4375 64.359375 2.4375 65.347656 13.707031 Z M 65.347656 13.707031 " fill-opacity="1" fill-rule="nonzero"/><path fill="#ffffff" d="M 60.394531 8.359375 L 71.269531 132.6875 C 71.53125 135.699219 74.210938 137.941406 77.222656 137.6875 L 77.550781 137.652344 C 80.5625 137.390625 82.800781 134.710938 82.550781 131.699219 L 71.675781 7.371094 C 71.410156 4.359375 68.730469 2.117188 65.722656 2.371094 L 65.390625 2.402344 C 62.382812 2.679688 60.128906 5.347656 60.394531 8.359375 Z M 60.394531 8.359375 " fill-opacity="1" fill-rule="nonzero"/><path fill="#7d82b8" d="M 95.414062 116.289062 L 180.875 108.808594 C 189.421875 108.058594 189.421875 108.058594 188.683594 99.625 C 188.277344 94.976562 184.105469 91.515625 179.402344 91.933594 L 93.941406 99.414062 C 89.238281 99.820312 85.722656 103.960938 86.128906 108.597656 C 86.867188 117.035156 86.867188 117.035156 95.414062 116.289062 Z M 95.414062 116.289062 " fill-opacity="1" fill-rule="nonzero"/><path fill="#ffffff" d="M 118.8125 156.769531 C 107.441406 157.769531 84.988281 159.722656 82.035156 125.910156 C 79.078125 92.097656 67.796875 93.074219 70.761719 126.898438 C 73.730469 160.722656 92.359375 170.445312 119.800781 168.050781 C 142.339844 166.074219 141.363281 154.800781 118.8125 156.769531 Z M 237.050781 146.429688 C 214.5 148.308594 209.984375 160.21875 232.527344 158.1875 C 242.511719 157.285156 243.410156 161.535156 245.683594 170.214844 C 247.828125 178.375 250.835938 190.625 255.394531 207.761719 C 258.734375 220.351562 269.214844 215.824219 266.445312 204.851562 C 261.800781 186.40625 257.417969 170.335938 254.550781 160.117188 C 251.617188 149.683594 248.871094 145.441406 237.050781 146.429688 Z M 237.050781 146.429688 " fill-opacity="1" fill-rule="nonzero"/><path fill="#c3b4f1" d="M 79.804688 217.921875 C 79.804688 218.480469 79.832031 219.035156 79.886719 219.585938 C 79.941406 220.140625 80.019531 220.6875 80.128906 221.234375 C 80.238281 221.78125 80.371094 222.316406 80.535156 222.851562 C 80.695312 223.382812 80.882812 223.90625 81.09375 224.417969 C 81.308594 224.933594 81.546875 225.433594 81.808594 225.925781 C 82.070312 226.414062 82.355469 226.890625 82.664062 227.351562 C 82.972656 227.816406 83.304688 228.261719 83.65625 228.691406 C 84.007812 229.121094 84.382812 229.53125 84.773438 229.925781 C 85.167969 230.316406 85.578125 230.691406 86.007812 231.042969 C 86.4375 231.394531 86.882812 231.726562 87.347656 232.035156 C 87.808594 232.34375 88.285156 232.628906 88.773438 232.890625 C 89.265625 233.152344 89.765625 233.390625 90.28125 233.605469 C 90.792969 233.816406 91.316406 234.003906 91.847656 234.164062 C 92.378906 234.324219 92.917969 234.460938 93.464844 234.570312 C 94.007812 234.679688 94.558594 234.757812 95.113281 234.8125 C 95.664062 234.867188 96.21875 234.894531 96.773438 234.894531 C 97.332031 234.894531 97.886719 234.867188 98.4375 234.8125 C 98.992188 234.757812 99.539062 234.679688 100.085938 234.570312 C 100.632812 234.460938 101.167969 234.324219 101.703125 234.164062 C 102.234375 234.003906 102.757812 233.816406 103.269531 233.605469 C 103.785156 233.390625 104.285156 233.152344 104.773438 232.890625 C 105.265625 232.628906 105.742188 232.34375 106.203125 232.035156 C 106.667969 231.726562 107.113281 231.394531 107.542969 231.042969 C 107.972656 230.691406 108.382812 230.316406 108.777344 229.925781 C 109.167969 229.53125 109.542969 229.121094 109.894531 228.691406 C 110.246094 228.261719 110.578125 227.816406 110.886719 227.351562 C 111.195312 226.890625 111.480469 226.414062 111.742188 225.925781 C 112.003906 225.433594 112.242188 224.933594 112.453125 224.417969 C 112.667969 223.90625 112.855469 223.382812 113.015625 222.851562 C 113.175781 222.316406 113.3125 221.78125 113.421875 221.234375 C 113.527344 220.6875 113.609375 220.140625 113.664062 219.585938 C 113.71875 219.035156 113.746094 218.480469 113.746094 217.921875 C 113.746094 217.367188 113.71875 216.8125 113.664062 216.261719 C 113.609375 215.707031 113.527344 215.15625 113.421875 214.613281 C 113.3125 214.066406 113.175781 213.527344 113.015625 212.996094 C 112.855469 212.464844 112.667969 211.941406 112.453125 211.429688 C 112.242188 210.914062 112.003906 210.414062 111.742188 209.921875 C 111.480469 209.433594 111.195312 208.957031 110.886719 208.492188 C 110.578125 208.03125 110.246094 207.585938 109.894531 207.15625 C 109.542969 206.726562 109.167969 206.316406 108.777344 205.921875 C 108.382812 205.527344 107.972656 205.15625 107.542969 204.804688 C 107.113281 204.449219 106.667969 204.121094 106.203125 203.8125 C 105.742188 203.503906 105.265625 203.21875 104.773438 202.957031 C 104.285156 202.691406 103.785156 202.457031 103.269531 202.242188 C 102.757812 202.03125 102.234375 201.84375 101.703125 201.683594 C 101.167969 201.519531 100.632812 201.386719 100.085938 201.277344 C 99.539062 201.167969 98.992188 201.085938 98.4375 201.03125 C 97.886719 200.976562 97.332031 200.949219 96.773438 200.949219 C 96.21875 200.949219 95.664062 200.976562 95.113281 201.03125 C 94.558594 201.085938 94.007812 201.167969 93.464844 201.277344 C 92.917969 201.386719 92.378906 201.519531 91.847656 201.683594 C 91.316406 201.84375 90.792969 202.03125 90.28125 202.242188 C 89.765625 202.457031 89.265625 202.691406 88.773438 202.957031 C 88.285156 203.21875 87.808594 203.503906 87.347656 203.8125 C 86.882812 204.121094 86.4375 204.449219 86.007812 204.804688 C 85.578125 205.15625 85.167969 205.527344 84.773438 205.921875 C 84.382812 206.316406 84.007812 206.726562 83.65625 207.15625 C 83.304688 207.585938 82.972656 208.03125 82.664062 208.492188 C 82.355469 208.957031 82.070312 209.433594 81.808594 209.921875 C 81.546875 210.414062 81.308594 210.914062 81.09375 211.429688 C 80.882812 211.941406 80.695312 212.464844 80.535156 212.996094 C 80.371094 213.527344 80.238281 214.066406 80.128906 214.613281 C 80.019531 215.15625 79.941406 215.707031 79.886719 216.261719 C 79.832031 216.8125 79.804688 217.367188 79.804688 217.921875 Z M 79.804688 217.921875 " fill-opacity="1" fill-rule="nonzero"/><path fill="#c3b4f1" d="M 20.453125 255.460938 L 89.050781 215.847656 L 49.441406 147.246094 L 59.238281 141.585938 L 98.851562 210.191406 L 167.453125 170.589844 L 173.109375 180.386719 L 104.507812 219.988281 L 144.109375 288.589844 L 134.308594 294.25 L 94.710938 225.644531 L 26.109375 265.257812 Z M 20.453125 255.460938 " fill-opacity="1" fill-rule="nonzero"/><path fill="#c3b4f1" d="M 69.347656 298.433594 L 89.84375 221.921875 L 13.335938 201.421875 L 16.265625 190.492188 L 92.777344 210.992188 L 113.273438 134.480469 L 124.203125 137.402344 L 103.707031 213.925781 L 180.214844 234.421875 L 177.292969 245.351562 L 100.773438 224.855469 L 80.277344 301.367188 Z M 69.347656 298.433594 " fill-opacity="1" fill-rule="nonzero"/><g clip-path="url(#id4)"><path fill="#7d82b8" d="M 96.773438 121.738281 C 149.898438 121.738281 192.957031 164.796875 192.957031 217.921875 C 192.957031 271.046875 149.898438 314.109375 96.773438 314.109375 C 43.652344 314.109375 0.589844 271.046875 0.589844 217.921875 C 0.589844 164.796875 43.652344 121.738281 96.773438 121.738281 Z M 96.773438 291.480469 C 137.398438 291.480469 170.328125 258.546875 170.328125 217.921875 C 170.328125 177.300781 137.398438 144.367188 96.773438 144.367188 C 56.152344 144.367188 23.21875 177.300781 23.21875 217.921875 C 23.21875 258.546875 56.152344 291.480469 96.773438 291.480469 Z M 96.773438 291.480469 " fill-opacity="1" fill-rule="nonzero"/></g><path fill="#c3b4f1" d="M 96.773438 133.050781 C 143.648438 133.050781 181.644531 171.050781 181.644531 217.921875 C 181.644531 264.796875 143.648438 302.796875 96.773438 302.796875 C 49.902344 302.796875 11.90625 264.796875 11.90625 217.921875 C 11.90625 171.050781 49.902344 133.050781 96.773438 133.050781 Z M 96.773438 291.480469 C 137.398438 291.480469 170.328125 258.546875 170.328125 217.921875 C 170.328125 177.300781 137.398438 144.367188 96.773438 144.367188 C 56.152344 144.367188 23.21875 177.300781 23.21875 217.921875 C 23.21875 258.546875 56.152344 291.480469 96.773438 291.480469 Z M 200.339844 286.582031 L 224.835938 272.433594 L 210.699219 247.933594 L 220.496094 242.277344 L 234.636719 266.773438 L 259.140625 252.625 L 264.800781 262.425781 L 240.292969 276.574219 L 254.441406 301.070312 L 244.640625 306.726562 L 230.492188 282.230469 L 205.996094 296.378906 Z M 200.339844 286.582031 " fill-opacity="1" fill-rule="nonzero"/><g clip-path="url(#id5)"><path fill="#7d82b8" d="M 232.570312 234.894531 C 254.441406 234.894531 272.171875 252.625 272.171875 274.496094 C 272.171875 296.367188 254.441406 314.109375 232.570312 314.109375 C 210.699219 314.109375 192.96875 296.378906 192.96875 274.507812 C 192.96875 252.636719 210.699219 234.894531 232.570312 234.894531 Z M 232.570312 302.796875 C 248.191406 302.796875 260.855469 290.128906 260.855469 274.507812 C 260.855469 258.886719 248.191406 246.222656 232.570312 246.222656 C 216.949219 246.222656 204.285156 258.886719 204.285156 274.507812 C 204.273438 290.128906 216.9375 302.796875 232.570312 302.796875 Z M 232.570312 302.796875 " fill-opacity="1" fill-rule="nonzero"/></g><path fill="#ffffff" d="M 257.4375 193.777344 L 257.757812 193.691406 C 260.679688 192.910156 263.699219 194.65625 264.480469 197.578125 L 282.144531 263.480469 C 282.925781 266.402344 281.175781 269.421875 278.253906 270.203125 L 277.9375 270.289062 C 275.015625 271.070312 271.996094 269.324219 271.214844 266.402344 L 253.550781 200.5 C 252.78125 197.589844 254.527344 194.570312 257.4375 193.777344 Z M 257.4375 193.777344 " fill-opacity="1" fill-rule="nonzero"/><g clip-path="url(#id6)"><path fill="#c3b4f1" d="M 277.949219 270.300781 L 321.984375 258.503906 C 324.910156 257.722656 326.65625 254.691406 325.875 251.78125 L 325.785156 251.460938 C 325.007812 248.539062 321.976562 246.792969 319.0625 247.574219 L 275.027344 259.371094 C 272.105469 260.152344 270.359375 263.183594 271.136719 266.09375 L 271.226562 266.414062 C 271.996094 269.335938 275.027344 271.082031 277.949219 270.300781 Z M 277.949219 270.300781 " fill-opacity="1" fill-rule="nonzero"/></g><path fill="#ffffff" d="M 33.207031 19.5625 L 66.960938 13.609375 C 69.9375 13.082031 71.9375 10.226562 71.421875 7.25 L 71.367188 6.917969 C 70.839844 3.941406 67.984375 1.941406 65.007812 2.457031 L 31.25 8.414062 C 28.273438 8.941406 26.273438 11.796875 26.789062 14.773438 L 26.84375 15.101562 C 27.371094 18.089844 30.238281 20.089844 33.207031 19.5625 Z M 33.207031 19.5625 " fill-opacity="1" fill-rule="nonzero"/><path fill="#7d82b8" d="M 22.230469 21.507812 L 51.824219 16.210938 C 54.890625 15.675781 54.769531 13.101562 54.230469 10.039062 C 53.691406 6.972656 52.921875 4.523438 49.859375 5.0625 L 20.265625 10.355469 C 17.199219 10.894531 15.136719 13.851562 15.671875 16.914062 C 16.210938 19.980469 19.167969 22.046875 22.230469 21.507812 Z M 22.230469 21.507812 " fill-opacity="1" fill-rule="nonzero"/></g></g></g></g></svg>