<?xml version="1.0" encoding="utf-8"?>
<!-- Generator: Adobe Illustrator 19.0.0, SVG Export Plug-In . SVG Version: 6.00 Build 0)  -->
<svg version="1.1" id="layer" xmlns="http://www.w3.org/2000/svg" xmlns:xlink="http://www.w3.org/1999/xlink" x="0px"
	y="0px" viewBox="-153 -46 652 652" style="enable-background:new -153 -46 652 652;" xml:space="preserve">
	<style type="text/css">
		.st0 {
			fill: #ffcce1;
		}

		text {
			font-size: 100px;
		}
	</style>
	<path id="MyPath" class="st0" d="M352.6,192.8c-51.9-5-141.2,16.2-214.9,32.4c-59,13-107.1,21.1-139.3,19.9
	c-18.1-1.2-35.9-6.4-50.1-18c2.2,5.6,13.2,21.4,17.9,23.1c-18.8,1.5-38.2,3.7-56.9-0.3c-14.9-3.2-31.4-8.6-43.2-19.6
	c9.1,16.9,23,32.6,38.3,44.1c27.4,20.6,65.5,20,96.8,9.9c0.6-0.2,6.9-2,10.3-2c8,0.3,13.9,5.9,9.3,19c-3.9,9.8-11.7,17.5-20.8,17.7
	c-12.1,0-12.9-9.6-26.7-9.1c-24.1-0.6-39.6,10-72-8.1c6.6,6.5,44.6,48.2,126,56.8c20.8,2.2,44,0.4,54.9-0.8
	c70.6-7.4,125.7-31.4,174.3-52.6c41.2-18.6,90.7-37.9,127.7-39.9c31.1-2.5,55.2,7.5,64.5,26.8c4.2,8.6,5.2,18.5,3,28.7
	C482.9,276.4,469.3,201.7,352.6,192.8" />
</svg>